<svg xmlns="http://www.w3.org/2000/svg" width="1280" height="900" viewBox="0 0 1280 900"><defs><linearGradient id="g"><stop stop-color="#db2777"/><stop offset=".55" stop-color="#7c3aed"/><stop offset="1" stop-color="#0284c7"/></linearGradient><style>.t{font-family:Arial,sans-serif;fill:#201a2c}.m{font-family:Arial,sans-serif;fill:#5d5870}.h{font:700 20px Arial;fill:#be185d}.v{font:700 18px Arial;fill:#201a2c}.mono{font:16px monospace;fill:#29233a}</style></defs><rect width="1280" height="900" rx="28" fill="#f7f8fc"/><rect x="10" y="10" width="1260" height="880" rx="26" fill="none" stroke="url(#g)" stroke-width="2"/><text x="40" y="52" class="mono">ankur@kali:~$ cat README.md █</text><text x="40" y="120" style="font:800 60px Arial;fill:url(#g);letter-spacing:2px">ANKUR YADAV</text><text x="42" y="158" style="font:700 23px monospace;fill:#201a2c;letter-spacing:3px">&lt; CYBERSECURITY ENGINEER /&gt;</text><g font-family="Arial" font-size="14" fill="#201a2c"><rect x="40" y="180" width="120" height="32" rx="16" fill="#fff" stroke="#7c3aed"/><text x="51" y="201">Ethical Hacker</text><rect x="170" y="180" width="150" height="32" rx="16" fill="#fff" stroke="#7c3aed"/><text x="182" y="201">Penetration Tester</text><rect x="330" y="180" width="165" height="32" rx="16" fill="#fff" stroke="#7c3aed"/><text x="342" y="201">Blue Team Enthusiast</text><rect x="505" y="180" width="165" height="32" rx="16" fill="#fff" stroke="#7c3aed"/><text x="517" y="201">Security Researcher</text></g><rect x="40" y="235" width="630" height="86" rx="16" fill="#fff" stroke="#db2777"/><text x="60" y="270" class="mono">“I don’t just write code.</text><text x="60" y="300" class="mono">I break it, understand it, and secure it.”</text><rect x="40" y="340" width="630" height="80" rx="16" fill="#fff" stroke="#7c3aed"/><text x="60" y="370" class="h">TECH STACK</text><text x="60" y="398" class="t" style="font:15px Arial">Linux • Nmap • Wireshark • Burp Suite • Metasploit • Python • Bash • ELK • SQL • OSINT</text><rect x="735" y="35" width="505" height="390" rx="24" fill="#fff" stroke="url(#g)"/><image href="./assets/ankur-cyber-character.svg" x="760" y="48" width="455" height="350" preserveAspectRatio="xMidYMid slice"/><text x="760" y="405" class="mono" fill="#15803d">[+] identity verified</text><g><rect x="25" y="450" width="360" height="205" rx="18" fill="#fff" stroke="#c4b5fd"/><text x="45" y="483" class="h">◉ ABOUT ME</text><text x="45" y="515" class="m" style="font-size:15px">B.Tech CSE · 6th Semester</text><text x="45" y="542" class="m" style="font-size:15px">Mangalayatan University, Aligarh</text><text x="45" y="569" class="m" style="font-size:15px">CGPA: 8.0</text><text x="45" y="596" class="m" style="font-size:15px">Cybersecurity · Networking · Ethical Hacking</text><text x="45" y="623" class="m" style="font-size:15px">SIEM / ELK · System Security · DFIR</text><rect x="405" y="450" width="400" height="205" rx="18" fill="#fff" stroke="#c4b5fd"/><text x="425" y="483" class="h">◈ PROFILE SNAPSHOT</text><text x="425" y="520" class="m">EDUCATION</text><text x="425" y="548" class="v">B.Tech CSE · 6th Sem</text><text x="425" y="580" class="m">CGPA</text><text x="425" y="608" class="v">8.0 / 10</text><text x="620" y="580" class="m">MISSION</text><text x="620" y="608" class="v">Cybersecurity Mastery</text><rect x="825" y="450" width="430" height="205" rx="18" fill="#fff" stroke="#c4b5fd"/><text x="845" y="483" class="h">★ ACHIEVEMENTS</text><text x="845" y="520" class="m">Google Student Ambassador</text><text x="845" y="550" class="m">Google Arcade Legend</text><text x="845" y="580" class="m">Team CodeX · Core Member</text><text x="845" y="610" class="m">Tech Enthusiast · Lifelong Learner</text><text x="845" y="638" class="m">Building practical security skills</text></g><rect x="25" y="680" width="1230" height="85" rx="18" fill="#fff" stroke="#c4b5fd"/><text x="45" y="713" class="h">TOOLS I USE</text><text x="45" y="744" class="t" style="font:15px Arial">Kali Linux • Nmap • Wireshark • Burp Suite • Metasploit • Hashcat • Autopsy • SQLMap • Nikto • Maltego</text><rect x="25" y="790" width="1230" height="80" rx="18" fill="#fff" stroke="url(#g)"/><text x="45" y="823" class="h">FEATURED PROJECTS</text><text x="45" y="850" class="m">Ostrich OS • Ostrich Browser • AI Assistant • Security Labs</text><text x="760" y="850" style="font:700 16px Arial;fill:#be185d">KEEP LEARNING • KEEP HACKING • KEEP GROWING • KEEP SECURING</text></svg>